# xmcd
#
# Track frame offsets: 
#        150
#        11647
#        23253
#        33827
#        47056
#        59454
#        71329
#        83583
#        95543
#        109752
#        124054
#        136898
#        149453
#        162687
#        175373
#        190455
#        206713
#        221130
#        233021
#        246480
#        261093
#        273694
#        291141
#        304530
#        321022
#        336013
#        348897
#
# Disc length: 4809 seconds
#
# Revision: 2
# Processed by: cddbd v1.5.2PL0 Copyright (c) Steve Scherf et al.
# Submitted via: ExactAudioCopyFreeDBPlugin 1.0
#
DISCID=9212c71b
DTITLE=Martha Reeves and The Vandellas - 50th Anniversary:  The Singles 
DTITLE=Collection, 1962-1972 [box set]
DYEAR=2013
DGENRE=Soul
TTITLE0=I'll Be Standing By
TTITLE1=You Just Wouldn't Listen
TTITLE2=Better Think it Over
TTITLE3=It's Hard to Walk Away
TTITLE4=Memories Are Made of This
TTITLE5=I Remember You
TTITLE6=C'mon and Swim
TTITLE7=Testifying for Love
TTITLE8=S.O.S. (Girl in Distress)
TTITLE9=You Can Have Him
TTITLE10=Remember Me
TTITLE11=Love, Don't Take a Holiday
TTITLE12=Loving You is Sweeter Than Ever
TTITLE13=Light My Fire
TTITLE14=Don't Say You Love Me
TTITLE15=We Will
TTITLE16=I've Got Nothing Left to Cling To
TTITLE17=I've Gotta Have Somebody to Rely On
TTITLE18=Hooked Real Good on a Bad Thing
TTITLE19=I Can't Wait Till Summer Comes
TTITLE20=Don't Leave Your Baby
TTITLE21=He's Good
TTITLE22=Play a Sad Song
TTITLE23=Love (Makes Me Do Foolish Things) (alternate extended version
TTITLE23=)
TTITLE24=Dancing in the Street (alternate extended version)
TTITLE25=I Can't Dance to That Music You're Playin' (original version)
TTITLE26=I Can't Dance to That Music You're Playin' (alternate version
TTITLE26=)
EXTD=
EXTT0=
EXTT1=
EXTT2=
EXTT3=
EXTT4=
EXTT5=
EXTT6=
EXTT7=
EXTT8=
EXTT9=
EXTT10=
EXTT11=
EXTT12=
EXTT13=
EXTT14=
EXTT15=
EXTT16=
EXTT17=
EXTT18=
EXTT19=
EXTT20=
EXTT21=
EXTT22=
EXTT23=
EXTT24=
EXTT25=
EXTT26=
PLAYORDER=
